<?xml version="1.0" encoding="UTF-8"?>
<svg id="Layer_1" data-name="Layer 1" xmlns="http://www.w3.org/2000/svg" xmlns:xlink="http://www.w3.org/1999/xlink" viewBox="0 0 489.89 184.33">
  <defs>
    <style>
      .cls-1 {
        fill: #292e61;
      }

      .cls-2 {
        fill: url(#linear-gradient);
      }
    </style>
    <linearGradient id="linear-gradient" x1="0" y1="88.79" x2="223.32" y2="88.79" gradientUnits="userSpaceOnUse">
      <stop offset="0" stop-color="#74a8cd"/>
      <stop offset="1" stop-color="#c9eaac"/>
    </linearGradient>
  </defs>
  <path class="cls-1" d="M67.73,105.42H25.23c-.63-4.33-.95-8.76-.95-13.26C24.28,41.26,65.54,0,116.45,0c2.65,0,5.28.12,7.88.34-35.22,8.32-61.43,39.94-61.43,77.7,0,9.62,1.7,18.84,4.83,27.38Z"/>
  <path class="cls-1" d="M197.39,136.26c-15.63,28.64-46.02,48.07-80.94,48.07-41.47,0-76.53-27.38-88.11-65.04h46.03c13.98,23.14,39.38,38.61,68.39,38.61,21.14,0,40.35-8.23,54.63-21.64Z"/>
  <path class="cls-2" d="M223.32,84.19c0,2.21-1.79,4-4,4h-48.19c-1.5,3.15-4.71,5.33-8.43,5.33-.41,0-.81-.03-1.2-.08l-17.42,27.07c.89,1.43,1.41,3.11,1.41,4.92,0,5.14-4.19,9.33-9.34,9.33s-9.33-4.19-9.33-9.33c0-2.03.65-3.9,1.75-5.43l-18.14-32.76c-.19.01-.39.02-.59.02-.48,0-.95-.04-1.41-.11l-20.45,30.37c-.75,1.11-1.99,1.77-3.32,1.77H4c-2.21,0-4-1.79-4-4s1.79-4,4-4h78.53l19.28-28.61c-.83-1.4-1.31-3.03-1.31-4.76,0-5.15,4.19-9.33,9.34-9.33s9.33,4.18,9.33,9.33c0,2.02-.65,3.9-1.75,5.43l18.14,32.76.85,1.53.95-1.47,17.42-27.06c-.9-1.43-1.42-3.12-1.42-4.92,0-5.15,4.19-9.34,9.34-9.34,3.72,0,6.94,2.19,8.43,5.34h15.72c.3-1.56.46-3.15.46-4.77,0-13.56-11.04-24.6-24.6-24.6-11.26,0-21.05,7.59-23.83,18.49-.02.05-.03.09-.04.14-.05.22-.13.43-.21.63-.11.25-.24.48-.4.7-.04.06-.08.12-.13.18-.14.17-.29.33-.45.48-.08.07-.16.14-.25.21-.57.44-1.26.72-1.99.8-.15.02-.3.03-.45.03-.14,0-.29-.01-.44-.03-.17-.01-.35-.05-.53-.09-1.48-.37-2.57-1.53-2.92-2.93-2.73-10.96-12.54-18.61-23.85-18.61-13.56,0-24.6,11.03-24.6,24.6,0,4.93,1.46,9.68,4.2,13.75,1.24,1.83.76,4.32-1.07,5.55-.69.47-1.47.69-2.24.69-1.28,0-2.54-.62-3.31-1.76-3.65-5.4-5.58-11.7-5.58-18.23,0-17.98,14.62-32.6,32.6-32.6,11.56,0,21.94,6.03,27.75,15.46,5.81-9.43,16.19-15.46,27.74-15.46,17.98,0,32.6,14.62,32.6,32.6,0,1.61-.12,3.2-.35,4.77h24.36c2.21,0,4,1.79,4,4Z"/>
  <g>
    <path class="cls-1" d="M440.19,66.09l-1.78-.25c-4.21-.6-8.2,1.76-9.7,5.73l-13.22,34.89c-.08.21-.27.23-.34.23-.02,0-.26-.02-.34-.24l-12.07-34.5c-1.39-3.96-5.28-6.43-9.45-5.99l-1.88.2c-.55.06-1.04.36-1.34.83-.3.47-.36,1.04-.18,1.56l15.91,45.48c1.38,3.94,5.11,6.59,9.29,6.59s7.76-2.55,9.2-6.35l17.33-45.74c.2-.52.15-1.08-.13-1.56-.28-.47-.75-.79-1.3-.87Z"/>
    <path class="cls-1" d="M298.73,72.34c-1.38-3.94-5.11-6.58-9.29-6.58s-7.75,2.55-9.2,6.35l-17.33,45.73c-.2.52-.15,1.08.13,1.56.28.47.75.79,1.3.87l1.79.25c.44.06.87.09,1.3.09,3.71,0,7.05-2.26,8.4-5.82l13.22-34.89c.08-.21.26-.23.33-.23.07,0,.26.01.35.25l7.02,20.04h-7.83c-1.47,0-2.85.57-3.88,1.61-1.04,1.03-1.62,2.41-1.62,3.89,0,3.03,2.47,5.5,5.5,5.5h11.67l1.21,3.46c1.38,3.96,5.27,6.42,9.44,5.98l1.88-.19h0c.56-.06,1.05-.36,1.34-.83.29-.47.36-1.04.18-1.56l-15.91-45.48Z"/>
    <path class="cls-1" d="M374.72,80.32c-3.03,0-5.5,2.47-5.5,5.5v29.29c0,3.03,2.47,5.5,5.5,5.5s5.5-2.47,5.5-5.5v-29.29c0-3.03-2.47-5.5-5.5-5.5Z"/>
    <path class="cls-1" d="M357.02,109.61h-16.5c-3.49,0-6.33-2.84-6.33-6.33v-31.46c0-3.03-2.47-5.5-5.5-5.5s-5.5,2.47-5.5,5.5v32.2c0,9.15,7.44,16.59,16.59,16.59h17.24c3.03,0,5.5-2.47,5.5-5.5s-2.47-5.5-5.5-5.5Z"/>
    <path class="cls-1" d="M484.39,109.61h-18.06c-3.72,0-6.74-3.03-6.74-6.75v-3.44h21.26c1.47,0,2.85-.57,3.89-1.62,1.04-1.04,1.61-2.42,1.61-3.88,0-3.03-2.47-5.5-5.5-5.5h-21.26v-4.36c0-3.72,3.02-6.74,6.74-6.74h18.06c1.47,0,2.85-.57,3.89-1.62,1.04-1.04,1.61-2.42,1.61-3.88,0-3.03-2.47-5.5-5.5-5.5h-18.46c-9.56,0-17.34,7.78-17.34,17.34v19.6c0,9.57,7.78,17.35,17.34,17.35h18.46c1.46,0,2.85-.57,3.9-1.61,1.04-1.05,1.6-2.43,1.6-3.89,0-3.03-2.47-5.5-5.5-5.5Z"/>
    <polygon class="cls-1" points="377.32 64.78 374.72 58.09 372.11 64.78 364.95 65.19 370.5 69.74 368.68 76.68 374.72 72.8 380.76 76.68 378.94 69.74 384.49 65.19 377.32 64.78"/>
  </g>
</svg>