<?xml version="1.0" encoding="UTF-8"?>
<svg id="Layer_1" data-name="Layer 1" xmlns="http://www.w3.org/2000/svg" xmlns:xlink="http://www.w3.org/1999/xlink" viewBox="0 0 226.78 270.7">
  <defs>
    <style>
      .cls-1 {
        fill: #292e61;
      }

      .cls-2 {
        fill: url(#linear-gradient);
      }
    </style>
    <linearGradient id="linear-gradient" x1="0" y1="88.79" x2="223.32" y2="88.79" gradientUnits="userSpaceOnUse">
      <stop offset="0" stop-color="#74a8cd"/>
      <stop offset="1" stop-color="#c9eaac"/>
    </linearGradient>
  </defs>
  <path class="cls-1" d="M67.73,105.42H25.23c-.63-4.33-.95-8.76-.95-13.26C24.28,41.26,65.54,0,116.45,0c2.65,0,5.28.12,7.88.34-35.22,8.32-61.43,39.94-61.43,77.7,0,9.62,1.7,18.84,4.83,27.38Z"/>
  <path class="cls-1" d="M197.39,136.26c-15.63,28.64-46.02,48.07-80.94,48.07-41.47,0-76.53-27.38-88.11-65.04h46.03c13.98,23.14,39.38,38.61,68.39,38.61,21.14,0,40.35-8.23,54.63-21.64Z"/>
  <path class="cls-2" d="M223.32,84.19c0,2.21-1.79,4-4,4h-48.19c-1.5,3.15-4.71,5.33-8.43,5.33-.41,0-.81-.03-1.2-.08l-17.42,27.07c.89,1.43,1.41,3.11,1.41,4.92,0,5.14-4.19,9.33-9.34,9.33s-9.33-4.19-9.33-9.33c0-2.03.65-3.9,1.75-5.43l-18.14-32.76c-.19.01-.39.02-.59.02-.48,0-.95-.04-1.41-.11l-20.45,30.37c-.75,1.11-1.99,1.77-3.32,1.77H4c-2.21,0-4-1.79-4-4s1.79-4,4-4h78.53l19.28-28.61c-.83-1.4-1.31-3.03-1.31-4.76,0-5.15,4.19-9.33,9.34-9.33s9.33,4.18,9.33,9.33c0,2.02-.65,3.9-1.75,5.43l18.14,32.76.85,1.53.95-1.47,17.42-27.06c-.9-1.43-1.42-3.12-1.42-4.92,0-5.15,4.19-9.34,9.34-9.34,3.72,0,6.94,2.19,8.43,5.34h15.72c.3-1.56.46-3.15.46-4.77,0-13.56-11.04-24.6-24.6-24.6-11.26,0-21.05,7.59-23.83,18.49-.02.05-.03.09-.04.14-.05.22-.13.43-.21.63-.11.25-.24.48-.4.7-.04.06-.08.12-.13.18-.14.17-.29.33-.45.48-.08.07-.16.14-.25.21-.57.44-1.26.72-1.99.8-.15.02-.3.03-.45.03-.14,0-.29-.01-.44-.03-.17-.01-.35-.05-.53-.09-1.48-.37-2.57-1.53-2.92-2.93-2.73-10.96-12.54-18.61-23.85-18.61-13.56,0-24.6,11.03-24.6,24.6,0,4.93,1.46,9.68,4.2,13.75,1.24,1.83.76,4.32-1.07,5.55-.69.47-1.47.69-2.24.69-1.28,0-2.54-.62-3.31-1.76-3.65-5.4-5.58-11.7-5.58-18.23,0-17.98,14.62-32.6,32.6-32.6,11.56,0,21.94,6.03,27.75,15.46,5.81-9.43,16.19-15.46,27.74-15.46,17.98,0,32.6,14.62,32.6,32.6,0,1.61-.12,3.2-.35,4.77h24.36c2.21,0,4,1.79,4,4Z"/>
  <g>
    <path class="cls-1" d="M152.48,270.7h0c-3.97,0-7.51-2.51-8.82-6.26l-15.91-45.48c-.28-.79.26-1.64,1.1-1.73l1.88-.2c3.93-.41,7.62,1.93,8.92,5.66l12.07,34.5c.27.76,1.33.77,1.62.02l13.22-34.89c1.41-3.73,5.22-5.97,9.16-5.41l1.78.25c.83.12,1.33.97,1.03,1.75l-17.33,45.74c-1.38,3.63-4.85,6.03-8.73,6.03Z"/>
    <path class="cls-1" d="M50.46,270.3l-1.88.19c-3.93.41-7.62-1.93-8.92-5.65l-1.33-3.79h-13.02c-2.76,0-5-2.24-5-5,0-1.38.56-2.63,1.47-3.53.9-.91,2.15-1.47,3.53-1.47h9.53l-7.25-20.71c-.27-.76-1.33-.78-1.62-.03l-13.22,34.89c-1.41,3.73-5.22,5.97-9.16,5.41l-1.79-.25c-.82-.12-1.33-.97-1.03-1.76l17.33-45.73c1.38-3.63,4.85-6.03,8.73-6.03s7.51,2.51,8.82,6.25l9.78,27.96,3.5,10,2.63,7.52c.28.8-.26,1.64-1.1,1.73Z"/>
    <rect class="cls-1" x="107.11" y="231.41" width="10" height="39.29" rx="5" ry="5"/>
    <path class="cls-1" d="M94.41,270.7h-17.24c-8.89,0-16.09-7.2-16.09-16.09v-32.2c0-2.76,2.24-5,5-5h0c2.76,0,5,2.24,5,5v31.46c0,3.77,3.06,6.83,6.83,6.83h16.5c2.76,0,5,2.24,5,5h0c0,2.76-2.24,5-5,5Z"/>
    <path class="cls-1" d="M226.78,265.7c0,1.38-.56,2.63-1.46,3.54-.91.9-2.16,1.46-3.54,1.46h-18.46c-9.3,0-16.84-7.55-16.84-16.85v-19.6c0-9.3,7.54-16.84,16.84-16.84h18.46c2.76,0,5,2.24,5,5,0,1.38-.56,2.63-1.46,3.53s-2.16,1.47-3.54,1.47h-18.06c-4,0-7.24,3.24-7.24,7.24v4.86h21.76c2.76,0,5,2.24,5,5,0,1.38-.56,2.63-1.46,3.53s-2.16,1.47-3.54,1.47h-21.76v3.94c0,4,3.24,7.25,7.24,7.25h18.06c2.76,0,5,2.24,5,5Z"/>
    <polygon class="cls-1" points="112.11 210.06 114.37 215.85 120.57 216.21 115.76 220.14 117.34 226.15 112.11 222.8 106.88 226.15 108.45 220.14 103.65 216.21 109.85 215.85 112.11 210.06"/>
  </g>
</svg>