<?xml version="1.0" encoding="UTF-8"?>
<svg id="Layer_1" data-name="Layer 1" xmlns="http://www.w3.org/2000/svg" viewBox="0 0 227.1 62.52">
  <defs>
    <style>
      .cls-1 {
        fill: #fff;
      }
    </style>
  </defs>
  <path class="cls-1" d="M177.4,8l-1.78-.25c-4.21-.6-8.2,1.76-9.7,5.73l-13.22,34.89c-.08.21-.27.23-.34.23-.02,0-.26-.02-.34-.24l-12.07-34.5c-1.39-3.96-5.28-6.43-9.45-5.99l-1.88.2c-.55.06-1.04.36-1.34.83-.3.47-.36,1.04-.18,1.56l15.91,45.48c1.38,3.94,5.11,6.59,9.29,6.59s7.76-2.55,9.2-6.35l17.33-45.74c.2-.52.15-1.08-.13-1.56-.28-.47-.75-.79-1.3-.87Z"/>
  <path class="cls-1" d="M35.94,14.25c-1.38-3.94-5.11-6.58-9.29-6.58s-7.75,2.55-9.2,6.35L.12,59.75c-.2.52-.15,1.08.13,1.56.28.47.75.79,1.3.87l1.79.25c.44.06.87.09,1.3.09,3.71,0,7.05-2.26,8.4-5.82l13.22-34.89c.08-.21.26-.23.33-.23.07,0,.26.01.35.25l7.02,20.04h-7.83c-1.47,0-2.85.57-3.88,1.61-1.04,1.03-1.62,2.41-1.62,3.89,0,3.03,2.47,5.5,5.5,5.5h11.67l1.21,3.46c1.38,3.96,5.27,6.42,9.44,5.98l1.88-.19h0c.56-.06,1.05-.36,1.34-.83.29-.47.36-1.04.18-1.56l-15.91-45.48Z"/>
  <path class="cls-1" d="M111.93,22.23c-3.03,0-5.5,2.47-5.5,5.5v29.29c0,3.03,2.47,5.5,5.5,5.5s5.5-2.47,5.5-5.5v-29.29c0-3.03-2.47-5.5-5.5-5.5Z"/>
  <path class="cls-1" d="M94.23,51.52h-16.5c-3.49,0-6.33-2.84-6.33-6.33V13.73c0-3.03-2.47-5.5-5.5-5.5s-5.5,2.47-5.5,5.5v32.2c0,9.15,7.44,16.59,16.59,16.59h17.24c3.03,0,5.5-2.47,5.5-5.5s-2.47-5.5-5.5-5.5Z"/>
  <path class="cls-1" d="M221.6,51.52h-18.06c-3.72,0-6.74-3.03-6.74-6.75v-3.44h21.26c1.47,0,2.85-.57,3.89-1.62,1.04-1.04,1.61-2.42,1.61-3.88,0-3.03-2.47-5.5-5.5-5.5h-21.26v-4.36c0-3.72,3.02-6.74,6.74-6.74h18.06c1.47,0,2.85-.57,3.89-1.62,1.04-1.04,1.61-2.42,1.61-3.88,0-3.03-2.47-5.5-5.5-5.5h-18.46c-9.56,0-17.34,7.78-17.34,17.34v19.6c0,9.57,7.78,17.35,17.34,17.35h18.46c1.46,0,2.85-.57,3.9-1.61,1.04-1.05,1.6-2.43,1.6-3.89,0-3.03-2.47-5.5-5.5-5.5Z"/>
  <polygon class="cls-1" points="114.53 6.69 111.93 0 109.32 6.69 102.16 7.1 107.71 11.65 105.89 18.59 111.93 14.71 117.97 18.59 116.15 11.65 121.7 7.1 114.53 6.69"/>
</svg>